<svg width="32" height="30" viewBox="0 0 32 30" fill="none" xmlns="http://www.w3.org/2000/svg">
<path d="M11.5556 0.777779C9.89444 0.777779 8.51667 1.91667 8.12222 3.45556C8.07778 3.45556 8.04444 3.44445 8 3.44445C6.03889 3.44445 4.44444 5.03889 4.44444 7C4.44444 7.26667 4.47778 7.52778 4.53889 7.77778C2.91667 8.44444 1.77778 10.0333 1.77778 11.8889C1.77778 12.5889 1.95556 13.2389 2.23889 13.8278C0.905556 14.5944 0 16.0167 0 17.6667C0 19.5167 1.13333 21.1056 2.74444 21.7722C2.69444 22.0278 2.66667 22.2889 2.66667 22.5556C2.66667 24.7667 4.45556 26.5556 6.66667 26.5556C6.89444 26.5556 7.11667 26.5278 7.33333 26.4889C7.86667 28.0722 9.34444 29.2222 11.1111 29.2222C13.3222 29.2222 15.1111 27.4333 15.1111 25.2222V4.33333C15.1111 2.37222 13.5167 0.777779 11.5556 0.777779ZM32 17.6667C32 16.0167 31.0944 14.5944 29.7611 13.8278C30.05 13.2389 30.2222 12.5889 30.2222 11.8889C30.2222 10.0333 29.0833 8.44444 27.4611 7.77778C27.5167 7.52778 27.5556 7.26667 27.5556 7C27.5556 5.03889 25.9611 3.44445 24 3.44445C23.9556 3.44445 23.9167 3.45556 23.8778 3.45556C23.4833 1.91667 22.1056 0.777779 20.4444 0.777779C18.4833 0.777779 16.8889 2.36667 16.8889 4.33333V25.2222C16.8889 27.4333 18.6778 29.2222 20.8889 29.2222C22.6556 29.2222 24.1333 28.0722 24.6667 26.4889C24.8833 26.5278 25.1056 26.5556 25.3333 26.5556C27.5444 26.5556 29.3333 24.7667 29.3333 22.5556C29.3333 22.2889 29.3056 22.0278 29.2556 21.7722C30.8667 21.1056 32 19.5167 32 17.6667Z" fill="#A7A49F"/>
</svg>
