<svg width="32" height="32" viewBox="0 0 32 32" fill="none" xmlns="http://www.w3.org/2000/svg">
<g clip-path="url(#clip0_7_48)">
<path d="M14.0722 3.72778C14.4111 3.07222 14.1556 2.26667 13.5056 1.92778C12.8556 1.58889 12.0444 1.84444 11.7056 2.49444L6.53333 12.4444H1.77778C0.794444 12.4444 0 13.2389 0 14.2222C0 15.2056 0.794444 16 1.77778 16L4.66111 27.5278C5.05556 29.1111 6.47778 30.2222 8.11111 30.2222H23.8889C25.5222 30.2222 26.9444 29.1111 27.3389 27.5278L30.2222 16C31.2056 16 32 15.2056 32 14.2222C32 13.2389 31.2056 12.4444 30.2222 12.4444H25.4667L20.2944 2.49444C19.9556 1.84444 19.15 1.58889 18.4944 1.92778C17.8389 2.26667 17.5889 3.07222 17.9278 3.72778L22.4611 12.4444H9.53889L14.0722 3.72778ZM10.6667 18.6667V24C10.6667 24.4889 10.2667 24.8889 9.77778 24.8889C9.28889 24.8889 8.88889 24.4889 8.88889 24V18.6667C8.88889 18.1778 9.28889 17.7778 9.77778 17.7778C10.2667 17.7778 10.6667 18.1778 10.6667 18.6667ZM16 17.7778C16.4889 17.7778 16.8889 18.1778 16.8889 18.6667V24C16.8889 24.4889 16.4889 24.8889 16 24.8889C15.5111 24.8889 15.1111 24.4889 15.1111 24V18.6667C15.1111 18.1778 15.5111 17.7778 16 17.7778ZM23.1111 18.6667V24C23.1111 24.4889 22.7111 24.8889 22.2222 24.8889C21.7333 24.8889 21.3333 24.4889 21.3333 24V18.6667C21.3333 18.1778 21.7333 17.7778 22.2222 17.7778C22.7111 17.7778 23.1111 18.1778 23.1111 18.6667Z" fill="#A7A49F"/>
</g>
<defs>
<clipPath id="clip0_7_48">
<rect width="32" height="32" fill="white"/>
</clipPath>
</defs>
</svg>
